<?xml version="1.0" encoding="utf-8"?>
<!-- Generator: Adobe Illustrator 25.1.0, SVG Export Plug-In . SVG Version: 6.00 Build 0)  -->
<svg version="1.1" id="Слой_1" xmlns="http://www.w3.org/2000/svg" xmlns:xlink="http://www.w3.org/1999/xlink" x="0px" y="0px"
	 viewBox="0 0 2825.56 2000" style="enable-background:new 0 0 2825.56 2000;" xml:space="preserve">
<style type="text/css">
	.st0{fill:#FAFAFA;}
	.st1{opacity:0.95;fill:url(#SVGID_1_);}
	.st2{fill:#96BFE6;}
	.st3{opacity:0.95;fill:url(#SVGID_2_);}
	.st4{fill:#4598E6;}
	.st5{fill:url(#SVGID_3_);}
	.st6{opacity:0.95;fill:url(#SVGID_4_);}
	.st7{fill:#385369;}
	.st8{fill:#EEA886;}
	.st9{fill:#434343;}
	.st10{fill:#A77860;}
	.st11{fill:#0E2D3D;}
	.st12{fill:#163342;}
	.st13{fill:#1D3B54;}
	.st14{fill:#285173;}
	.st15{fill:#FFBF55;}
	.st16{fill:#183C59;}
	.st17{fill:#616161;}
	.st18{fill:#E0CEC7;}
	.st19{fill:#EEA987;}
	.st20{fill:url(#SVGID_5_);}
	.st21{fill:url(#SVGID_6_);}
	.st22{fill:url(#SVGID_7_);}
	.st23{fill:url(#SVGID_8_);}
	.st24{fill:url(#SVGID_9_);}
	.st25{fill:#FFFFFF;}
	.st26{fill:url(#SVGID_10_);}
	.st27{fill:url(#SVGID_11_);}
	.st28{opacity:0.95;fill:url(#SVGID_12_);}
	.st29{fill:#344052;}
	.st30{fill:#EB4747;}
	.st31{fill:#393D63;}
	.st32{fill:#DECBC4;}
	.st33{fill:#E8734D;}
	.st34{fill:#3C4145;}
	.st35{fill:#51565C;}
	.st36{fill:#F5E2D9;}
	.st37{fill:#D44040;}
	.st38{fill:#2D3133;}
	.st39{fill:#292C47;}
	.st40{fill:#424773;}
	.st41{fill:#3A3F47;}
	.st42{fill:#E2D2CA;}
	.st43{fill:#323657;}
	.st44{fill:#FFDF69;}
	.st45{fill:#AB9546;}
	.st46{opacity:0.95;}
	.st47{fill:url(#SVGID_13_);}
	.st48{fill:url(#SVGID_14_);}
	.st49{fill:url(#SVGID_15_);}
	.st50{fill:url(#SVGID_16_);}
	.st51{fill:url(#SVGID_17_);}
	.st52{fill:url(#SVGID_18_);}
	.st53{fill:url(#SVGID_19_);}
	.st54{fill:url(#SVGID_20_);}
	.st55{fill:url(#SVGID_21_);}
	.st56{fill:url(#SVGID_22_);}
	.st57{fill:url(#SVGID_23_);}
</style>
<g>
	<rect class="st0" width="2825.56" height="2000"/>
	<linearGradient id="SVGID_1_" gradientUnits="userSpaceOnUse" x1="1561.3845" y1="1443.0176" x2="1520.1956" y2="696.4568">
		<stop  offset="0" style="stop-color:#D1D7E0"/>
		<stop  offset="1" style="stop-color:#EBEBFF"/>
	</linearGradient>
	<path class="st1" d="M1728.78,1023.93h-410.13c-32.4,0-58.67-26.27-58.67-58.67V555.13c0-32.4,26.27-58.67,58.67-58.67h410.13
		c32.4,0,58.67,26.27,58.67,58.67v410.13C1787.44,997.66,1761.18,1023.93,1728.78,1023.93z"/>
	<rect x="1401.61" y="903.84" class="st2" width="244.21" height="12.06"/>
	<rect x="1436.2" y="941.86" class="st2" width="175.03" height="12.06"/>
	<linearGradient id="SVGID_2_" gradientUnits="userSpaceOnUse" x1="2235.1641" y1="1651.1495" x2="2235.1641" y2="882.5546">
		<stop  offset="0" style="stop-color:#D1D7E0"/>
		<stop  offset="1" style="stop-color:#EBEBFF"/>
	</linearGradient>
	<path class="st3" d="M2527,1526.74h-583.66c-38.17,0-69.12-30.94-69.12-69.12V748.52c0-38.17,30.94-69.12,69.12-69.12H2527
		c38.17,0,69.12,30.94,69.12,69.12v709.11C2596.11,1495.8,2565.17,1526.74,2527,1526.74z"/>
	<g>
		<rect x="2201.53" y="1179.28" class="st4" width="57.26" height="10.6"/>
	</g>
	<g>
		<rect x="1984.16" y="1276.45" class="st2" width="333.16" height="20.53"/>
		<rect x="1984.16" y="1375.01" class="st2" width="269.41" height="20.53"/>
		<rect x="1984.16" y="1325.73" class="st2" width="157.94" height="20.53"/>
	</g>
	<g>
		<path class="st4" d="M2404.48,763.9v10.37h61.05v57.3h10.37V763.9H2404.48z M1989.89,831.57h10.37v-57.3h61.05V763.9h-71.42
			V831.57z M2465.54,1127.23v57.32h-61.05v10.37h71.42v-67.69H2465.54z M2000.26,1127.23h-10.37v67.69h71.42v-10.37h-61.05V1127.23z
			"/>
	</g>
	<g>
		<g>
			<path class="st4" d="M2443.58,1397.05c-33.67,0-61.06-27.39-61.06-61.06c0-33.67,27.39-61.06,61.06-61.06
				s61.06,27.39,61.06,61.06C2504.64,1369.66,2477.25,1397.05,2443.58,1397.05z M2443.58,1286.76c-27.15,0-49.24,22.09-49.24,49.24
				c0,27.15,22.09,49.24,49.24,49.24s49.24-22.09,49.24-49.24C2492.82,1308.84,2470.73,1286.76,2443.58,1286.76z"/>
		</g>
		<g>
			<polygon class="st4" points="2439.69,1360.03 2411.95,1332.29 2420.3,1323.93 2439.69,1343.31 2466.86,1316.14 2475.21,1324.5 
							"/>
		</g>
	</g>
	<linearGradient id="SVGID_3_" gradientUnits="userSpaceOnUse" x1="498.8389" y1="1873.2251" x2="2480.2969" y2="1873.2251">
		<stop  offset="5.208330e-03" style="stop-color:#1A2257"/>
		<stop  offset="1" style="stop-color:#5E60F2"/>
	</linearGradient>
	<path class="st5" d="M2480.3,1873.22c0,25.61-443.56,46.37-990.73,46.37c-547.17,0-990.73-20.76-990.73-46.37
		c0-25.61,443.56-46.37,990.73-46.37C2036.73,1826.86,2480.3,1847.62,2480.3,1873.22z"/>
	<linearGradient id="SVGID_4_" gradientUnits="userSpaceOnUse" x1="1523.7124" y1="1176.525" x2="1523.7124" y2="614.5236">
		<stop  offset="0" style="stop-color:#D1D7E0"/>
		<stop  offset="1" style="stop-color:#EBEBFF"/>
	</linearGradient>
	<rect x="1345.95" y="516.19" class="st6" width="355.53" height="305.04"/>
	<g>
		<path class="st7" d="M1659.51,701.89c-11.71-30.97-39.84-45.2-53.12-49.63c-4.73-1.57-13.17-4.33-22.07-7.21
			c-16.04-5.18-33.56-10.82-33.56-10.82h-55.33c0,0-19.16,6.42-39.52,13.56c0,0.02-0.02,0.02-0.02,0.02
			c-18.76,6.58-38.51,13.75-45.18,17.1c-13.91,6.94-37.31,56.59-42.04,62.28c-2.44,2.93-13.3,22.27-23.98,43.87h59.61
			c6.3-10.82,11.15-19.21,11.15-19.21s3.77,8.27,8.34,19.21h190.97c3.02-12.7,4.9-28.71,4.9-28.71s10.23,13.91,21.39,28.71h55.04
			C1682.72,748.6,1666.11,719.37,1659.51,701.89z"/>
		<g>
			<path class="st8" d="M1529.69,482.18c0,0,43.27,6.82,36.68,74.51c-6.59,67.69-44.77,62.15-47.33,62.08
				c-2.55-0.07-38.33,1.23-41.12-81.42C1477.92,537.35,1476.7,476.23,1529.69,482.18z"/>
		</g>
		<g>
			<path class="st8" d="M1567.04,537.57c0,0,4.74-5.06,6.48,0.06c1.74,5.12-6.46,27.97-6.76,29.04c0,0-0.87,1.99-2,0.89
				C1563.62,566.47,1567.04,537.57,1567.04,537.57z"/>
		</g>
		<g>
			<path class="st8" d="M1479.08,536.71c0,0-4.64-5.15-6.48-0.06c-1.84,5.09,5.85,28.09,6.2,29.17c0,0,0.83,2,1.98,0.93
				C1481.94,565.67,1479.08,536.71,1479.08,536.71z"/>
		</g>
		<g>
			<path class="st9" d="M1567.02,547.95l-6.19,8.28c0,0,0.17-18.16-0.82-21c-0.99-2.85-2.51-11.54-3.35-13.59
				c-0.83-2.05-37.15-12.23-69.24,2.97c0,0,1.41,13.05-1.66,14.22c-3.07,1.16-1.57,21.26-1.57,21.26l-5.09-5.75
				c0,0-7.79-52.08-5.87-57.51c1.92-5.43,8.06-38.06,73.88-18.69c0,0,20.52-4.35,24.64,9.82
				C1575.87,502.13,1567.02,547.95,1567.02,547.95z"/>
		</g>
		<path class="st8" d="M1556.13,633.01c-0.02-0.06-5.55-2.73-5.55-2.73c-2.7-6.03-0.69-31.46-0.69-31.46s-55.11-14.03-53.53-3.3
			s-4.75,35.64-4.75,35.64l-28.27,14.04c0,0,30.12,80.88,64.74,70.44c34.62-10.43,47.69-73.36,47.69-73.36L1556.13,633.01z"/>
		<path class="st10" d="M1497.15,607.44c0,0,8.88,11.46,24.29,11.46c10.14,0,17.41-2.84,27.51-12.69c0,0-4.38,18.7-27.44,20.44
			C1521.5,626.65,1504.78,628.78,1497.15,607.44z"/>
	</g>
	<g>
		<g>
			<g>
				<g>
					<g>
						<g>
							<path class="st11" d="M1338.06,879c0,0,31.79,15.55,23.93,57.86c-7.86,42.31-11.34,48.01-2.55,64.54
								c8.79,16.53,19.17,87.05,11.25,100.42c-7.91,13.37-97.96-58.74-110.44-119.23c-12.49-60.5,7.91-87.4,15.12-97.43
								C1282.6,875.13,1309.99,864.75,1338.06,879z"/>
						</g>
					</g>
				</g>
			</g>
		</g>
		<g>
			<path class="st12" d="M1326.07,1860.87h7.21v-33.98c0,0,14.13,9.42,23,22.45c8.87,13.03,21.06,11.92,39.63,11.08
				c18.57-0.83,17.74-8.31,16.07-18.84c-1.66-10.53-20.51-13.86-26.61-15.52c-6.1-1.66-19.94-25.51-24.39-31.32
				c-6.07-7.92-9.28-15.52-9.28-15.52s-3.46-14.13-20.65,0c-17.18,14.13-12.19,41.29-10.25,43.79S1326.07,1860.87,1326.07,1860.87z"
				/>
		</g>
		<g>
			<path class="st8" d="M1362.37,1826.05c6.37,4.16,23,0,23,0c-4.71-6.1-33.67-46.83-33.67-46.83c-17.6-10.25-24.55,3.86-24.55,3.86
				C1334.33,1785.27,1356,1821.89,1362.37,1826.05z"/>
		</g>
		<g>
			<g>
				<g>
					<g>
						<path class="st8" d="M1547.67,1199.13c0,0,11.54,2.21,15.48-3.21c3.35-4.61,11.01-8.15,13.37-9.24
							c3.15-1.46,11.16-9.56,13.04-5.6s-12.55,13.98-15.16,16.69c-2.61,2.71,14.15,3.9,17.05,6.54c2.89,2.63-0.67,30.28-12.07,28.13
							c-11.41-2.15-22.18-11.98-24.26-11.96c-2.08,0.02-8.36-1.24-8.36-1.24L1547.67,1199.13z"/>
					</g>
				</g>
			</g>
		</g>
		<g>
			<g>
				<g>
					<g>
						<path class="st8" d="M1588.9,1203.17c0,0,34.49,8.91,36.29,11.43c1.8,2.52,1.21,4.36-2.05,3.66
							c-3.26-0.7-33.57-7.65-33.57-7.65s39.05,17.41,40.98,19.15c1.13,1.02,0.19,4.65-1.59,4.44c-1.78-0.21-41.47-15.25-41.47-15.25
							s36.43,16.32,37.61,18.25c1.03,1.69-0.67,4.81-3.45,3.79c-2.78-1.02-37.45-14.26-37.45-14.26s25.77,13.54,25.8,15.77
							c0.02,1.36-0.65,4.54-7.19,0.83c-6.54-3.7-22.89-10.82-22.89-10.82L1588.9,1203.17z"/>
					</g>
				</g>
			</g>
		</g>
		<g>
			<path class="st12" d="M1232.7,1863.19h4.43v-24.94c0,0,7.89,8.11,11.49,20.03c3.6,11.92,16.5,15.45,36.18,14.9
				c19.68-0.55,19.95-8.32,18.29-19.96c-1.66-11.64-18.29-17.74-18.29-17.74c-7.48-6.65-26.05-34.23-26.05-34.23
				s-11.92-3.19-21.27,4.36c-9.35,7.55-6.44,24.6-6.17,29.03C1231.59,1839.08,1232.7,1863.19,1232.7,1863.19z"/>
		</g>
		<g>
			<path class="st13" d="M1246.28,1269.01c0,0-23.45,30.48-29.81,66.65c-6.36,36.17,3.76,157.55,3.48,175.43
				c-0.28,17.88-16.91,62.36-13.58,96.03s16.45,201.26,16.45,201.26l35.93-7.13c0,0-2.08-170.85,0-184.99s6.25-65.65,7.08-71.47
				c0.83-5.82,52.78-158.64,52.78-184.71C1318.61,1334,1302.81,1226.47,1246.28,1269.01z"/>
		</g>
		<g>
			<path class="st13" d="M1364.06,1280.93c0,0,38.52,147.02,43.09,167.39c4.57,20.37,11.2,37.17,11.2,45.82
				c0,20.07-7.46,52.29-7.46,52.29l-48.92,233.95h-46.59c0,0,25.96-140.36,26.66-167.8c0.7-27.51,21.87-66.57,17.72-78.21
				c-4.16-11.64-66.93-145.91-66.93-145.91S1245.31,1238.25,1364.06,1280.93z"/>
		</g>
		<g>
			<path class="st8" d="M1284.8,1835.47l-26.05-34.23l-21.27,4.36c0,0,5.72,15.32,16.06,26.84
				C1265.79,1846.1,1284.8,1835.47,1284.8,1835.47z"/>
		</g>
		<g>
			<g>
				<path class="st14" d="M1348.15,1031.08c0,0,15.88,1.5,27.88,14.36s23.26,33.36,26.41,40.22s47.2,70.41,49.49,71.84
					c2.29,1.43,24.43,8.83,39.11,13.77c22.64,7.62,68.04,24.12,68.04,24.12l-9.01,28.54c0,0-85.35-27.93-106.73-33.2
					c-26.14-6.44-86.31-83.64-86.31-83.64S1312.15,1054.51,1348.15,1031.08z"/>
			</g>
		</g>
		<g>
			<g>
				<path class="st15" d="M1320.44,1019.94c0,0,20.57,9.71,27.72,11.14c7.14,1.43,34.86,37.43,39.72,50.57c4.86,13.14,0,32.86-10,56
					c-10,23.14-0.57,30.86-5.14,54c-4.57,23.14-3.1,109.73-2.24,122.58c0.86,12.86-133.74,32.35-160.31,8.92
					c0,0,17.99-78.03,39.29-100.3c4.61-4.82,4.12-36.91,0.98-44.91c-3.14-8-38.57-67.72-38.57-67.72s-2.6-60.57,12.86-72.57
					c13.43-10.43,50.03-14.15,56.6-16.43C1287.89,1018.94,1307.01,1017.94,1320.44,1019.94z"/>
			</g>
		</g>
		<g>
			<g>
				<path class="st8" d="M1330.26,996.2c0,0-0.61,5.66-1.32,13.32c-0.27,3.03-0.57,6.37-0.85,9.8c-0.82,10.26-1.47,21.28-1.08,26.91
					c0,0-21.38,21.43-45.69-25c0,0,10.22-19.15,2.52-45.21C1276.15,949.94,1330.26,996.2,1330.26,996.2z"/>
			</g>
		</g>
		<g>
			<path class="st16" d="M1390.09,1146.2c0,0,5.15-34.23-0.33-55.04c0,0,0,17.9-9.81,43.31L1390.09,1146.2z"/>
		</g>
		<g>
			<path class="st8" d="M1264.89,1024.52c0,0,14.71,43.43,55.08,40.24c40.37-3.2,19.14-36.67,19.14-36.67s-10.06-5.77-12.89-6.31
				c-2.83-0.54-44.64-1.07-44.64-1.07L1264.89,1024.52z"/>
		</g>
		<g>
			<path class="st14" d="M1339.11,1028.08c0,0,21.15,58.49,21.15,118.11c0,59.62,1.7,156.73,9.09,187.4s28.4,125.51,28.4,125.51
				l16.47-8.52c0,0-39.6-151.37-42.59-162.28c-2.99-10.92,2.27-126.22,5.11-135.88c2.84-9.66,14.92-52.63,13.04-64.55
				c-2.37-15.03-16.43-37.27-39.15-56.39L1339.11,1028.08z"/>
		</g>
		<g>
			<path class="st14" d="M1272.87,1022.69c0,0,13.14,42.08,19.8,95.98c6.66,53.9-20.44,304.08-38.62,360.87l-70.42-11.36
				c0,0,15.16-176.84,35.74-209.02s27.13-60.66,4.91-127.83c-22.21-67.17,9.74-100.44,9.74-100.44S1266.7,1023.39,1272.87,1022.69z"
				/>
		</g>
		<g>
			<polygon class="st17" points="1348.85,1201.16 1263.46,1349.05 1168.54,1294.25 1250.21,1144.21 			"/>
		</g>
		<g>
			<polygon class="st18" points="1338.55,1206.25 1262.72,1337.6 1178.42,1288.92 1250.96,1155.67 			"/>
		</g>
		<g>
			<polygon class="st17" points="1310.58,1194.45 1315.9,1185.23 1281.82,1165.55 1275.16,1174 			"/>
		</g>
		<g>
			<g>
				<g>
					<g>
						<g>
							<g>
								<path class="st8" d="M1306.51,1299.38c0,0-3.88,0.02-5.58-0.8c0,0-2.98-1.73-5.18-2.83c-0.7-0.35-1.31-0.63-1.73-0.78
									c-1.74-0.6-5.74-1.4-9.52-4.03c-3.77-2.62-17.14-18.1-17.14-18.1l6.31-9.6l4.63-9.83c0,0,28.07,1.81,31.87,3.85
									c0.37,0.2,0.73,0.41,1.05,0.64c3.05,2.03,4.46,4.83,5.94,6.08c0.54,0.46,5.6,5.42,5.42,7.53c-0.24,2.93-1.6,4.86-3.36,5.82
									c0,0-0.73,5.71-3.54,8.38c0,0-0.5,5.29-4.95,7.61C1310.74,1293.3,1309.63,1298.61,1306.51,1299.38z"/>
							</g>
						</g>
					</g>
				</g>
			</g>
		</g>
		<g>
			<g>
				<path class="st14" d="M1248.65,1031.08c0,0-25.93-7.43-40.79,21.14c-14.86,28.57-14.78,40.76-16.77,54.72
					c-1.88,13.17-10.34,49.14-11.2,52.86c-0.86,3.71-20.03,48.01-11.24,63.49c8.84,15.56,98.58,61.37,98.01,64.79
					s15.54-34.63,15.54-34.63s-36.32-20.24-42.26-26.47c-9.66-10.12-30.04-21.03-25.85-33.59c4.92-14.75,19.69-64.52,23.12-71.81
					C1240.65,1114.3,1270.5,1040.37,1248.65,1031.08z"/>
			</g>
		</g>
		<g>
			<g>
				<g>
					<g>
						<g>
							<path class="st19" d="M1333.45,883.69c0,0,46.16,14.51,21.1,94.17c-25.06,79.67-88.11-9.23-81.51-57.77
								C1279.64,871.55,1333.45,883.69,1333.45,883.69z"/>
						</g>
					</g>
				</g>
			</g>
		</g>
		<g>
			<g>
				<g>
					<g>
						<g>
							<path class="st11" d="M1359.27,930.17c0,0-22.94,22.51-61.33,25.32c0,0-14.75,17.3-15.89,24.09c0,0-34.25-58.38,7.85-93.38
								C1332.01,851.21,1374.75,915.75,1359.27,930.17z"/>
						</g>
					</g>
				</g>
			</g>
		</g>
		<g>
			<g>
				<g>
					<g>
						<g>
							<path class="st19" d="M1298.41,957.08c-0.3-5.8-3.87-18.99-12.49-15.3s0.53,30.56,6.24,28.91
								C1292.17,970.69,1299.11,970.8,1298.41,957.08z"/>
						</g>
					</g>
				</g>
			</g>
		</g>
		<g>
			<path class="st10" d="M1328.93,1009.52c-0.27,3.03-0.57,6.37-0.85,9.8c0,0-20.38-1.21-33.99-31.52
				C1294.98,989.12,1309.91,1011.05,1328.93,1009.52z"/>
		</g>
	</g>
	<g>
		<g>
			
				<linearGradient id="SVGID_5_" gradientUnits="userSpaceOnUse" x1="-3593.5527" y1="1498.3564" x2="-3466.1646" y2="1498.3564" gradientTransform="matrix(-1 0 0 1 -2645.543 0)">
				<stop  offset="0" style="stop-color:#3076A1"/>
				<stop  offset="1" style="stop-color:#48C9B6"/>
			</linearGradient>
			<path class="st20" d="M823.44,1738.05c29.6-20.82,64.24-165.88,66.31-252.29c1.06-44.26,14.14-62.7,25.68-78.97
				c11.03-15.55,20.56-28.98,15.01-59.82c-10.61-58.93,17.28-84.37,17.57-84.62l-3.23-3.68c-1.24,1.09-30.29,27.33-19.16,89.17
				c5.19,28.81-3.36,40.86-14.19,56.12c-11.36,16.01-25.49,35.93-26.59,81.69c-2.22,92.73-37.63,229.7-64.23,248.4L823.44,1738.05z"
				/>
		</g>
		<g>
			
				<linearGradient id="SVGID_6_" gradientUnits="userSpaceOnUse" x1="-3494.5764" y1="1603.5096" x2="-3262.9885" y2="1603.5096" gradientTransform="matrix(-1 0 0 1 -2645.543 0)">
				<stop  offset="0" style="stop-color:#3076A1"/>
				<stop  offset="1" style="stop-color:#48C9B6"/>
			</linearGradient>
			<path class="st21" d="M761.39,1695.74c-2.8-6.33-5.69-12.88-8.96-19.79c-16.91-35.69-31.89-41.57-56.7-51.31
				c-6.06-2.38-12.94-5.08-20.48-8.47c-35.55-15.98-28.67-39.52-22.59-60.29c0.85-2.91,1.7-5.8,2.43-8.67
				c3.13-12.22-2.88-18.35-11.97-27.62c-6.76-6.9-15.17-15.48-21.65-29.03c-7.1-14.83-3.48-22.79,0.8-26.85
				c9.02-8.55,29.81-6.97,49.44,3.75c6.1,3.33,11.12,8.59,16.44,14.15c12.52,13.11,28.09,29.42,67.49,29.6
				c22.46,0.11,34.77,3.21,41.14,10.37c7.23,8.12,5.87,20.29,3.98,37.13c-0.65,5.82-1.39,12.42-1.84,19.56
				c-2.68,42.55,22.44,73.24,22.69,73.54c15.01,17.87,33.49,54.94,25.51,77.76c-3.34,9.57-10.82,15.58-22.23,17.89
				c-4.54,0.92-8.7,1.36-12.52,1.36C784.81,1748.8,774.72,1725.95,761.39,1695.74z M669.37,1471.75
				c-17.53-9.57-36.33-11.5-43.73-4.49c-5.62,5.33-2.97,14.46,0.24,21.18c6.13,12.82,13.89,20.74,20.73,27.72
				c9.51,9.71,17.03,17.38,13.22,32.26c-0.75,2.92-1.61,5.87-2.47,8.83c-6.05,20.69-11.76,40.22,19.9,54.45
				c7.44,3.34,14.25,6.02,20.26,8.38c25.05,9.83,41.6,16.33,59.34,53.77c3.3,6.97,6.2,13.55,9.01,19.91
				c15.31,34.71,24.56,55.66,58.04,48.89c9.6-1.94,15.85-6.89,18.58-14.71c7.03-20.11-9.79-55.31-24.65-73
				c-1.09-1.3-26.62-32.43-23.82-76.99c0.46-7.25,1.2-13.91,1.86-19.79c1.75-15.58,3.01-26.83-2.77-33.33
				c-5.28-5.94-16.85-8.63-37.5-8.73c-41.47-0.19-57.85-17.34-71-31.11C679.34,1479.47,674.8,1474.71,669.37,1471.75L669.37,1471.75
				z"/>
		</g>
		<g>
			
				<linearGradient id="SVGID_7_" gradientUnits="userSpaceOnUse" x1="-3474.7803" y1="1637.1875" x2="-3300.958" y2="1637.1875" gradientTransform="matrix(-1 0 0 1 -2645.543 0)">
				<stop  offset="0" style="stop-color:#3076A1"/>
				<stop  offset="1" style="stop-color:#48C9B6"/>
			</linearGradient>
			<path class="st22" d="M824.35,1777.06l4.89-0.26c-0.24-4.59-6.41-112.85-49.88-144.54c-47.69-34.76-62.73-72.12-69.89-97.19
				c-8.44-29.55-51.39-37.44-53.21-37.76l-0.85,4.82c0.42,0.07,41.76,7.69,49.35,34.29c7.36,25.77,22.8,64.15,71.71,99.8
				C818.08,1666.55,824.29,1775.96,824.35,1777.06z"/>
		</g>
		<g>
			
				<linearGradient id="SVGID_8_" gradientUnits="userSpaceOnUse" x1="-3684.8945" y1="1460.6116" x2="-3423.8701" y2="1460.6116" gradientTransform="matrix(-1 0 0 1 -2645.543 0)">
				<stop  offset="0" style="stop-color:#3076A1"/>
				<stop  offset="1" style="stop-color:#48C9B6"/>
			</linearGradient>
			<path class="st23" d="M816.07,1801.41c-10.23-5.09-9.86-25.57-9.3-56.57c0.71-39.17,1.68-92.82-18.83-142.17
				c-21.78-52.42-2.36-67.74,16.43-82.56c21.04-16.59,40.92-32.27,2.77-103.02c-17.52-32.49-23.08-54.47-17.5-69.17
				c5.51-14.52,20.98-20.18,37.35-26.18c28.26-10.34,60.3-22.07,56.16-81.89c-1.27-18.34,0.89-29.62,6.79-35.49
				c6.41-6.38,15.85-5.69,26.78-4.89c16.52,1.21,35.23,2.58,51.52-18.69c1.69-5.31,17.28-52.74,35.92-60.86
				c3.91-1.71,7.75-1.68,11.4,0.06l0,0c12.87,6.15,20.34,13.45,22.83,22.32c4.34,15.41-6.95,32.8-20.03,52.93
				c-20.54,31.63-43.83,67.49-19.68,110.16c31.93,56.42,15.07,76.16-8.28,103.48c-13.37,15.65-28.53,33.4-38.66,62.34
				c-8.15,23.28,5.75,45.47,19.2,66.93c16.86,26.92,34.3,54.76-2.41,78.92c-60.71,39.94-120.66,170.31-121.26,171.62l-0.25,0.54
				l-0.47,0.37c-11.18,8.77-19.33,12.95-25.46,12.95C819.26,1802.55,817.59,1802.17,816.07,1801.41z M965.85,1612.98
				c32.72-21.52,18-45.02,0.96-72.23c-13.4-21.4-28.6-45.65-19.67-71.15c10.44-29.8,25.91-47.92,39.56-63.9
				c22.87-26.77,37.98-44.46,7.74-97.89c-25.61-45.25-0.41-84.06,19.84-115.23c12.43-19.13,23.16-35.66,19.42-48.93
				c-2.09-7.43-8.71-13.71-20.23-19.23l0,0c-2.35-1.12-4.75-1.12-7.33,0.01c-17.3,7.53-33.17,57.74-33.33,58.25l-0.13,0.41
				l-0.26,0.34c-17.96,23.74-39.07,22.19-56.04,20.95c-10.14-0.74-18.14-1.33-22.97,3.48c-4.75,4.73-6.5,15.1-5.36,31.68
				c4.39,63.49-30.96,76.43-59.36,86.82c-15.96,5.84-29.74,10.88-34.46,23.32c-5.04,13.27,0.44,33.96,17.24,65.11
				c40.1,74.37,17.66,92.07-4.05,109.18c-18.16,14.32-35.3,27.84-14.94,76.83c20.9,50.29,19.92,104.53,19.2,144.13
				c-0.49,27.04-0.88,48.39,6.58,52.1c4.37,2.17,12.72-1.5,24.83-10.92C847.94,1775.56,905.36,1652.78,965.85,1612.98z"/>
		</g>
		<linearGradient id="SVGID_9_" gradientUnits="userSpaceOnUse" x1="883.935" y1="1745.5405" x2="731.9583" y2="1289.6091">
			<stop  offset="0" style="stop-color:#3076A1"/>
			<stop  offset="1" style="stop-color:#48C9B6"/>
		</linearGradient>
		<path class="st24" d="M720.25,1233.17c30.9-10.59,24.48,48.96,37.53,93.01c13.05,44.06,145.23,19.22,89.75,129.55
			c-55.48,110.33,70.17,36.9,32.64,133.17c-37.53,96.28-3.26,199.25-44.06,173.06c-40.8-26.19-22.92-147.43-65.35-161.84
			c-42.43-14.41-49.35-31.21-7.34-70.37c42.01-39.16-110.07-78.04-72.54-157.13C728.41,1293.55,684.56,1245.41,720.25,1233.17z"/>
		<g>
			<path class="st25" d="M821.89,1755.64c3.89-16.48,37.07-161.53,6.11-179.06c-27.29-15.45-26.62-75.56-22.36-132.31
				c3.77-50.24-60.76-73.72-63.51-74.7l-1.64,4.61c0.64,0.23,63.75,23.21,60.26,69.72c-4.37,58.29-4.84,120.14,24.83,136.94
				c23.51,13.31,1.86,129.88-8.46,173.68L821.89,1755.64z"/>
		</g>
		<linearGradient id="SVGID_10_" gradientUnits="userSpaceOnUse" x1="766.3508" y1="2043.3005" x2="842.3395" y2="1715.728">
			<stop  offset="0" style="stop-color:#C9C4C1"/>
			<stop  offset="1" style="stop-color:#FFF6DE"/>
		</linearGradient>
		<polygon class="st26" points="938.46,1704 894.35,1871.35 795.77,1871.35 751.66,1704 		"/>
		
			<linearGradient id="SVGID_11_" gradientUnits="userSpaceOnUse" x1="732.1264" y1="1787.6729" x2="918.9281" y2="1787.6729" gradientTransform="matrix(1 0 0 1 19.5338 0)">
			<stop  offset="0" style="stop-color:#C9C4C1"/>
			<stop  offset="1" style="stop-color:#FFF6DE"/>
		</linearGradient>
		<path class="st27" d="M938.46,1704c0,0-97.11,18.23-97.11,167.35h-45.58L751.66,1704H938.46z"/>
	</g>
	<linearGradient id="SVGID_12_" gradientUnits="userSpaceOnUse" x1="2033.0205" y1="701.3976" x2="2033.0205" y2="384.814">
		<stop  offset="0" style="stop-color:#D1D7E0"/>
		<stop  offset="1" style="stop-color:#EBEBFF"/>
	</linearGradient>
	<path class="st28" d="M2178.55,650.15h-291.06c-26.64,0-48.23-21.59-48.23-48.23V349.37c0-26.64,21.59-48.23,48.23-48.23h291.06
		c26.64,0,48.23,21.59,48.23,48.23v252.55C2226.79,628.56,2205.19,650.15,2178.55,650.15z"/>
	<g>
		<rect x="2016.18" y="584.14" class="st4" width="30.74" height="5.69"/>
	</g>
	<g>
		<g>
			<g>
				<g>
					<path class="st29" d="M2059.34,270.57c0,0,24.76,13.6,16.9,47.04c-7.86,33.44-10.85,37.85-4.46,51.36
						c6.39,13.51,12,70.13,5.19,80.49c-6.81,10.36-75.89-50.52-83.56-99.23c-7.68-48.71,9.6-69.39,15.73-77.11
						S2037.5,258.15,2059.34,270.57z"/>
				</g>
			</g>
		</g>
		<g>
			<path class="st8" d="M2105.84,546.93h-26.51c-1.28-13.08-2.47-22.18-2.22-23.53c0.39-2.22-26.38-72.45-28.88-78.26
				c-2.52-5.79-12.33-21.37-13.61-36.04c-1.3-14.67,17.83-20.59,17.83-20.59c25.82,4.62,34.56,40.34,34.56,40.34
				s10.84,72.42,16.32,92.8C2104.74,526.87,2105.5,536.1,2105.84,546.93z"/>
		</g>
		<path class="st30" d="M2092.5,446.29l-39.48,16.65c0,0-36.29-90.06-5.87-80C2077.47,392.96,2091.11,411.8,2092.5,446.29z"/>
		<g>
			<path class="st30" d="M2083.71,488.69c-1.15,8.94-5.87,40.61-4.82,49.16c0.18,1.41,0.76,4.66,1.64,9.07h-95.2
				c2.53-9.04,4.84-17.04,6.23-21.69c4.62-15.33,0.2-19.44-2.14-31.71c-0.91-4.8-4.11-13.92-7.59-24.23
				c-1.17-3.44-2.37-7.03-3.52-10.63c-4.19-12.98-6.13-26.25-7.33-33.98c-5.74-36.62,22.42-40.14,22.42-40.14
				c10.47-1.93,28.75-7.58,28.75-7.58l28.64,5.96c0,0,2.73,1.02,6.7,3.96c0,0,0.02,0,0.02,0.02c1.91,1.41,4.12,3.26,6.44,5.65
				c3.13,3.21,9.36,12.41,15.58,22.52c1.9,3.1,3.81,6.28,5.61,9.41c5.82,10.08,9.96,18.2,9.83,27.37
				C2094.86,460.88,2084.86,479.75,2083.71,488.69z"/>
		</g>
		<path class="st8" d="M2050.79,382.94c0,0,17.94,30.66,11.27,32.95c-6.67,2.29-41.84-5.45-55.58-34.42
			C2006.48,381.47,2029.56,370.98,2050.79,382.94z"/>
		<path class="st8" d="M2048.22,396.94c0,0-15.94,6.74-30.37-15.46c0,0,3.88-25.21-4.32-39.79c-8.2-14.58,35.83,17.48,35.83,17.48
			s-0.71,3.01-1.45,7.44c-0.38,2.27-0.77,4.91-1.06,7.72c-0.25,2.34-0.44,4.79-0.52,7.23
			C2046.14,387.24,2046.55,392.87,2048.22,396.94z"/>
		<path class="st31" d="M2008.64,431.29c-3.28,16.88-26.82,38.02-26.82,38.02c-1.16-3.45-2.36-7.03-3.52-10.62
			C1994.55,448.32,2008.64,431.29,2008.64,431.29z"/>
		<g>
			<path class="st8" d="M2002.74,444.72c-1.49,6.15-8.36,68.44-7.61,70.57c0.44,1.22,3.76,15.63,7.09,31.64h-30.73
				c-3.15-10.32-5.01-18.89-4.56-23.74c1.96-21.01-5.16-87.99-5.16-87.99s-6.38-40.52,27.24-45.58c0,0,19.86,2.61,21.06,17.28
				C2011.28,421.58,2004.23,438.59,2002.74,444.72z"/>
		</g>
		<path class="st30" d="M1959.29,453.32l41.72,9.75c0,0,33.1-64.26,3.29-76C1972.88,374.71,1951.76,418.27,1959.29,453.32z"/>
		<g>
			<g>
				<g>
					<path class="st19" d="M2055.49,274.13c0,0,36.26,13.31,13.28,75.88c-22.98,62.58-69.9-10.68-62.81-49.13
						C2013.04,262.43,2055.49,274.13,2055.49,274.13z"/>
				</g>
			</g>
		</g>
		<g>
			<g>
				<g>
					<path class="st29" d="M2074.33,312.17c0,0-19.14,17.08-49.85,17.88c0,0-7.18,17.5-8.34,22.87c0,0-30.34-52.1,4.54-78.42
						C2055.57,248.19,2087.21,301.26,2074.33,312.17z"/>
				</g>
			</g>
		</g>
		<g>
			<g>
				<g>
					<path class="st19" d="M2028.62,333.8c-0.02-4.63-2.37-15.29-9.38-12.67c-7.01,2.62-0.73,24.39,3.89,23.29
						C2023.13,344.42,2028.67,344.77,2028.62,333.8z"/>
				</g>
			</g>
		</g>
		<path class="st10" d="M2046.37,380.5c-17.04-4.71-23.63-20.96-23.83-21.5c13.86,17.91,24.31,15.33,24.31,15.33
			C2046.6,376.67,2046.58,378.13,2046.37,380.5z"/>
	</g>
	<g>
		<path class="st4" d="M2125.13,364.3v5.57h32.77v30.76h5.57V364.3H2125.13z M1902.57,400.62h5.57v-30.76h32.77v-5.57h-38.34V400.62
			z M2157.9,559.34v30.77h-32.77v5.57h38.34v-36.34H2157.9z M1908.14,559.34h-5.57v36.34h38.34v-5.57h-32.77V559.34z"/>
	</g>
	<g>
		<rect x="1503.19" y="844.91" class="st4" width="41.05" height="7.6"/>
	</g>
	<g>
		<path class="st4" d="M1646.74,551.26v7.43h43.78v41.09h7.43v-48.52H1646.74z M1349.47,599.78h7.44v-41.09h43.78v-7.43h-51.21
			V599.78z M1690.52,811.77v41.1h-43.78v7.43h51.21v-48.54H1690.52z M1356.91,811.77h-7.44v48.54h51.21v-7.43h-43.78V811.77z"/>
	</g>
	<g>
		<g>
			<path class="st32" d="M2440.76,1122.48h-34.72c-0.63-1.39-1.15-2.6-1.57-3.57c-10.3-24.33-63.41-80.12-63.41-80.12s0,0.03,0,0.12
				c0,0-0.03,0.03-0.03,0.06c0,0,0,0.03,0,0.06c-0.03,0.09-0.06,0.15-0.09,0.24c-0.03,0.12-0.06,0.27-0.12,0.46
				c-0.03,0.09-0.06,0.21-0.06,0.3c-0.03,0.09-0.06,0.15-0.09,0.24c-2.18,8.13-12.87,48.63-18.22,82.2h-234.98
				c-0.54-3.11-1.18-6.08-1.9-8.82c-2.15-8.34-3.6-16.59-4.53-24.3c-0.03-0.39-0.09-0.76-0.12-1.15c-0.18-1.42-0.33-2.84-0.45-4.23
				c-2.02-21.09-0.51-37.26-0.39-38.9c-0.66,1.42-5.41,18.83-11.63,40.32c-3.42,11.79-7.28,24.81-11.12,37.08h-55.49l69.63-200.89
				c1.54-1.21,19.61-9.94,32.79-16.23c13.45-6.41,29.68-15.81,44.34-23.85c7.5-4.11,14.57-7.83,20.7-10.64l0.94-0.42v-0.03
				c10.12-4.62,16.86-7.68,16.86-7.68s0,0,0.03,0c0.24-0.03,1.84-0.18,4.38-0.42c14.14-1.36,58.03-5.47,72.71-6.32
				c1.21-0.09,2.24-0.12,3.02-0.15c0.67-0.03,1.18-0.03,1.48,0c1.84,0.12,10.91,3.26,22.79,7.8c0.45,0.15,0.91,0.33,1.36,0.51
				c0.58,0.21,1.12,0.42,1.69,0.63c1.03,0.39,2.09,0.79,3.14,1.21c2.12,0.85,4.32,1.69,6.53,2.57c0.76,0.3,1.54,0.6,2.33,0.91
				c23.78,9.43,51.04,21.12,57.51,25.78c4.29,3.05,17.62,28.17,33.06,59.24C2413.74,1007.75,2434.08,1084.58,2440.76,1122.48z"/>
		</g>
		<g>
			<path class="st8" d="M2268.33,849.03c-0.63,31.59-61.78,48.87-61.78,48.87s-25.58-32.07-19.47-35.14
				c2.4-1.21,3.37-5.99,3.67-11.36c0.28-5.11-0.05-10.75-0.35-14.33c-0.18-2.23-0.35-3.67-0.35-3.67s8.74-9.22,19.85-20.2
				c19.43-19.21,46.13-43.81,46.17-34.02c0,0.52-0.07,1.14-0.23,1.86C2251.15,803.05,2268.33,849.03,2268.33,849.03z"/>
		</g>
		<g>
			<path class="st10" d="M2244.77,802.75C2244.77,802.75,2244.77,802.75,2244.77,802.75c-0.12,0.19-2.72,4.07-7.15,9.64
				c-9.39,11.81-27.04,31.21-46.88,39c0.28-5.11-0.05-10.75-0.35-14.33c-2.03-0.05-4.06-0.29-6.07-0.73
				c5.44-9.5,13.3-19.47,13.3-19.47l12.28-3.67L2244.77,802.75z"/>
		</g>
		<g>
			<path class="st8" d="M2256.51,779.59c-5.29,11.51-10.31,19.85-11.74,23.16c0,0,0,0,0,0.01c-0.93,2.15-3.45,5.66-7.14,9.63
				c-10.08,10.86-28.81,25.18-47.23,24.68c-2.03-0.05-4.06-0.29-6.07-0.73c-7.44-1.62-16.22-5.08-21.05-14.54
				c-38.15-74.7-10.53-135.79-10.53-135.79s104.33-29.5,120.65,1.9C2284.85,709.94,2268.94,752.55,2256.51,779.59z"/>
		</g>
		<g>
			<path class="st33" d="M2152.75,686.01c0,0-9.69-0.54-12.08-18.91c-2.37-18.15,2.42-23.18,2.42-23.18s43.07-18.03,58.54-20.37
				c15.47-2.34,53.5-4.6,62.41,5.6c0,0,21.66-5.03,27.56,30.92c9.36,57.04-31.9,112.43-31.9,112.43s0.35-37.27-7.87-42.2
				c-8.22-4.94-15.31,6.8-15.31,6.8l-16.81,3.01c0,0,25.53-55.13-5.1-57.17C2183.97,680.9,2170.28,689.21,2152.75,686.01z"/>
		</g>
		<g>
			<path class="st8" d="M2236.97,722.25c1.6-16.42,31.29-22.69,29.3-5.48c-1.99,17.21-16.61,33.74-23.36,33.16
				C2236.15,749.35,2235.75,734.76,2236.97,722.25z"/>
		</g>
		<g>
			<path class="st34" d="M2410.75,956.04c-9.67-30.98-18.04-55.49-21.76-58.15c-6.5-4.65-58-18.83-82.45-28.41
				c-0.79-0.3-1.57-0.6-2.33-0.91c-2.21-0.88-4.41-1.72-6.53-2.57c-1.06-0.42-2.12-0.82-3.14-1.21c-0.57-0.21-1.12-0.42-1.69-0.63
				c-0.45-0.18-0.91-0.36-1.36-0.51c-0.03,0.03-0.06,0.09-0.12,0.12c-2.18,2.45-13.48,15.29-26.99,34.51
				c-25.27,35.9-58.18,94.08-53.13,147.79c1.63,17.23,3.63,41.98,6.98,69.75c0.24,2.21,0.51,4.41,0.82,6.65h114
				c1.39-29.07,3.87-67.37,7.62-82.2c0.03-0.09,0.06-0.15,0.09-0.24c0-0.09,0.03-0.21,0.06-0.3c0.03-0.15,0.09-0.3,0.12-0.46
				c0.03-0.09,0.06-0.15,0.09-0.24c0-0.03,0-0.06,0-0.06c0-0.03,0.03-0.06,0.03-0.06s27.59,43.13,29.01,83.56h71.75
				C2438.31,1084.91,2427.34,1009.21,2410.75,956.04z"/>
		</g>
		<g>
			<path class="st34" d="M2169.76,871.24c0,0-8.61,28.65-19.73,100.19c0,0,0,0,0,0.03c-0.39,2.39-0.76,4.84-1.15,7.34
				c-0.03,0.27-0.09,0.57-0.12,0.88c-0.27,1.63-0.51,3.33-0.76,5.02c-0.03,0.21-0.06,0.39-0.09,0.6c-0.18,1.12-0.36,2.27-0.51,3.44
				c-0.42,2.81-0.85,5.71-1.27,8.64c-4.17,29.19-9.73,75.59-15.38,125.09h-45.06c-2.45-13.75-4.74-26.26-4.56-34.85
				c-0.09,0.18-0.15,0.39-0.21,0.58c-3.6,9.97-7.56,20.82-11.58,31.37c-0.36,0.97-0.72,1.93-1.09,2.9h-77.67l77.37-202.4
				c1.54-1.21,21.46-11.94,34.63-18.19c13.75-6.56,31.13-14.63,46.54-21.73c7.37-3.42,14.29-6.59,20.16-9.28L2169.76,871.24z"/>
		</g>
		<g>
			<path class="st35" d="M2274.54,942.02l-29.77,16.8l12.72,12.97l-27.92,150.69h-10.52c-3.87-30.46-6.08-57.81-7.8-76.4
				c-7.77-83.05,75.1-176.71,80.24-182.42c3.99,1.51,8.28,3.17,12.72,4.93L2274.54,942.02z"/>
		</g>
		<g>
			<path class="st35" d="M2170.21,870.46c0,0-11.12,36.3-24.06,126.93c-4.17,29.16-9.76,75.59-15.41,125.09h-4.38l-5.77-142.38
				l14.17-15.35l-12.6-15.75l26.96-68.85c7.37-3.42,14.29-6.59,20.16-9.28L2170.21,870.46z"/>
		</g>
		<g>
			<path class="st36" d="M2293,864.01l-24.67-14.98c0,0-0.69,13.53-61.78,48.87l17.35,48.87L2293,864.01z"/>
		</g>
		<g>
			<path class="st36" d="M2190.29,855.84c0,0,0.96,14.6,16.25,42.05l-33.86,44.14l-2.47-71.59L2190.29,855.84z"/>
		</g>
		<g>
			<path class="st37" d="M2206.64,897.89c0,0,6.56,26.25,4.2,33.6c0,0-14.43,5.25-24.8-1.31
				C2186.04,930.18,2193.38,911.8,2206.64,897.89z"/>
		</g>
		<g>
			<path class="st37" d="M2198.68,987.14c-6.92,47.15-6.92,94.84-4.35,135.33h-28.92c-0.39-5.71-0.76-11.67-1.12-17.89
				c-5.38-93.36,27.62-176.77,27.62-176.77l14.72-3.69C2206.63,924.13,2201.89,965.38,2198.68,987.14z"/>
		</g>
		<g>
			<path class="st38" d="M2082.05,1045.32c-1.1,22.4-0.94,42.29-0.94,42.29s0,0.01,0,0.01c-0.01,0.11-0.03,0.71-0.08,1.71
				c-0.05-0.38-0.09-0.75-0.14-1.12c-3.58,9.97-7.56,20.81-11.56,31.36c-0.93-12.23-1.17-23.62-0.9-34.18
				c1.61-62.81,21.36-95.74,21.36-95.74C2085.26,1000.6,2083.09,1024.09,2082.05,1045.32z"/>
		</g>
	</g>
	<g>
		<g>
			<polygon class="st39" points="1811.71,1122.75 1719.3,1173.54 1626.5,1027.5 1738.75,988.52 			"/>
		</g>
		<g>
			<polygon class="st25" points="1805.86,1118.36 1719.44,1165.86 1632.65,1029.29 1737.62,992.83 			"/>
		</g>
		<g>
			<path class="st8" d="M1837.5,1092.82c0,0-16.08-7.69-23.14-11.71c-7.06-4.02-25.22-9.54-26.69-10.85
				c-1.47-1.31-53.83-4.54-57.01-7.28s-6.26,6.42,7.31,9.4c13.57,2.97,32.46,10.24,33.49,15.55c1.03,5.3-13.94,6.56-15.46,10.93
				c-1.52,4.37,0.43,3.39,2.57,4.33c2.15,0.94,17.81-7.74,24.7-5.28c6.89,2.46,17.42-0.95,22.7,0.86
				c5.28,1.81,30.95,10.45,30.95,10.45L1837.5,1092.82z"/>
		</g>
		<g>
			<path class="st8" d="M1714.8,1155.22c0,0-13.51-12.16-20.05-17.25c-6.54-5.09-18.81-20.05-20.62-20.92
				c-1.81-0.87-25.24-48.96-29.06-50.89c-3.82-1.93,3.61-8.4,11.7,3.23s22.29,26.6,27.69,25.51c5.4-1.09,0.75-15.69,4.28-18.82
				c3.53-3.13,3.36-0.92,5.08,0.74s-0.36,19.8,4.65,25.33c5,5.53,5.89,16.78,9.65,21.05s21.89,25.1,21.89,25.1L1714.8,1155.22z"/>
		</g>
		<g>
			<path class="st40" d="M2005.8,1805.24c0,0,2.92,20.29,3.29,23.33c0.37,3.05,32.52-1.79,32.52-1.79l2.6-24.15
				C2044.21,1802.63,2009.82,1802.38,2005.8,1805.24z"/>
		</g>
		<g>
			<path class="st39" d="M2008.75,1826c0,0-10.19,12.23-20.04,17.55c-9.85,5.33-25.33,7.44-31.16,12.96
				c-4.21,3.98-15.32,21.12,25.6,20.78c40.92-0.35,60.65,2.42,65.03-4.15c4.38-6.57-6.34-48.51-6.34-48.51
				S2032.15,1828.11,2008.75,1826z"/>
		</g>
		<g>
			<path class="st40" d="M1775.45,1805.24c0,0,2.92,20.29,3.29,23.33c0.37,3.05,32.52-1.79,32.52-1.79l2.6-24.15
				C1813.85,1802.63,1779.46,1802.38,1775.45,1805.24z"/>
		</g>
		<g>
			<path class="st39" d="M1778.39,1826c0,0-10.19,12.23-20.04,17.55c-9.85,5.33-46.11,9.71-51.93,15.22
				c-4.21,3.98-11.2,20.01,46.38,18.51c40.9-1.07,60.65,2.42,65.03-4.15c4.38-6.57-6.34-48.51-6.34-48.51
				S1802.35,1828.35,1778.39,1826z"/>
		</g>
		<g>
			<path class="st39" d="M1979.18,1283.93c0,0,30.21,48,27.96,91.38c-2.25,43.39,10.95,90.75,15.49,136.07
				c5.06,50.53,25.76,170.14,26.51,197.17c0.75,27.03-3.21,113.33-3.21,113.33l-41.44,0.95c0,0-34.81-209.11-43.82-230.45
				c-9.01-21.34-53.72-173.45-55.22-190.52C1903.94,1384.78,1979.18,1283.93,1979.18,1283.93z"/>
		</g>
		<g>
			<path class="st39" d="M1820.16,1290.43c0,0-22.77,118.91-25.77,145.46s-5.01,128.5-6.51,145.1s-10.02,217.17-18.03,241.83h52.98
				c0,0,40.67-145.81,40.67-214.8c0-68.99,31.42-149.98,51.71-195.5c20.28-45.52,66.71-46.6,79.18-131.05
				C1994.38,1281.47,1837.04,1263.64,1820.16,1290.43z"/>
		</g>
		<g>
			<path class="st8" d="M1928.77,880.41c0,0-40.55-15.15-59.24,15.72s-16.89,92.66,3.54,100.26c20.44,7.6,51.14,3.62,61.6-15.69
				c10.46-19.31,19.91-47.23,19.46-65.89C1953.68,896.14,1939.42,885.79,1928.77,880.41z"/>
		</g>
		<g>
			<path class="st8" d="M1877.47,997.79c0,0,1.69,10.95-1.1,16.34c-2.79,5.39,52.53,5.53,52.53,5.53s4.49-29.33,13-54.12
				C1950.42,940.77,1877.47,997.79,1877.47,997.79z"/>
		</g>
		<g>
			<path class="st41" d="M1941.91,965.55c0,0-3.82,6.3-19.4,3.85c-15.59-2.44-34.6-23.18-41.11-25.46c-6.51-2.28-6.57-6.1-6.57-6.1
				l-4.07,5.95l-6.91,0.44c0,0,6.3-18.55-3.21-26.11c-9.51-7.57,9.87-60.04,59.85-42.57c0,0,38.39,10.58,36.99,32.42
				C1956.09,929.81,1950.5,954.68,1941.91,965.55z"/>
		</g>
		<g>
			<path class="st42" d="M1873.09,1013.49c0,0,0.18-10.3,4.85-11.29c4.67-0.99,51.55-5.5,57.29-3.24v12
				C1935.22,1010.96,1924.17,1017.75,1873.09,1013.49z"/>
		</g>
		<g>
			<path class="st8" d="M1875.86,929.91c0.88-3.66,10.19-14.13,13.75-2.92c3.57,11.21-5.39,26.28-10.38,24.99
				C1874.24,950.69,1873.65,939.2,1875.86,929.91z"/>
		</g>
		<g>
			<path class="st43" d="M1687.03,1135.23c0.02-0.01,0.05-0.01,0.08-0.01C1686.78,1135.36,1686.73,1135.38,1687.03,1135.23z"/>
		</g>
		<g>
			<path class="st44" d="M2013.26,1398.27c0,0-24.87,7.32-67.27,12s-148.35-1.69-149.02-6.7c-0.67-5.01,22.79-186.54,21.46-195.89
				c-1.33-9.35-2.05-42.66-2.05-42.66c-0.52,9.13-9.82,46.41-21.05,66.73c-4.06,7.34-17.66,30.36-24.22,25.12
				c-31.74-25.34-80.89-120.84-84.01-121.65c2.62-1.14,23.29-10.66,26.19-11.62c2.54-0.85,25.44,23.4,39.31,38.43
				c6.19,6.7,10.58,11.57,10.58,11.57c4.01-9.01,18.6-65.8,23.13-85.46c10.23-44.32,8.66-46.17,8.66-46.17
				c31.02-9.38,78.11-28.48,78.11-28.48l62.13-2.53c0,0,57.02,12.55,79.48,22.7c2.13,0.96,2.14,50.87,7.99,63.96l-18.62,39.28
				c0,0-10.75,77.81-12.99,112.42C1990.05,1265.19,2013.26,1398.27,2013.26,1398.27z"/>
		</g>
		<g>
			<path class="st44" d="M2025.27,1162.4c-1.62,5.24-8.99,9.66-13.77,11.6c-3.06,1.24-6.49,1.64-9.95,1l-2.43-0.45v0l-42.58-7.9
				c0,0-9.32-107.29,58.17-133C2016.48,1034.23,2040.17,1114.36,2025.27,1162.4z"/>
		</g>
		<g>
			<path class="st45" d="M2011.49,1174L2011.49,1174c-3.06,1.24-6.49,1.64-9.95,1l-2.43-0.45v0l4.2-54.83L2011.49,1174z"/>
		</g>
		<g>
			<path class="st45" d="M1763.19,1173.59l-5.2,22.04c0,0-5.65-22.11-5.38-33.6C1758.8,1168.72,1763.19,1173.59,1763.19,1173.59z"/>
		</g>
		<g>
			<path class="st41" d="M1940.32,884.05c0,0,53.14-6.66,0.9,82.11L1940.32,884.05z"/>
		</g>
		<g>
			<polygon class="st39" points="1669.22,1019.67 1663.82,1010.39 1706.37,995.71 1711.77,1004.94 			"/>
		</g>
	</g>
	<g class="st46">
		<linearGradient id="SVGID_13_" gradientUnits="userSpaceOnUse" x1="2471.501" y1="612.4077" x2="2510.8691" y2="612.4077">
			<stop  offset="0" style="stop-color:#D1D7E0"/>
			<stop  offset="1" style="stop-color:#EBEBFF"/>
		</linearGradient>
		<polygon class="st47" points="2480.73,621.98 2510.87,621.98 2501.64,602.84 2471.5,602.84 		"/>
		<linearGradient id="SVGID_14_" gradientUnits="userSpaceOnUse" x1="2457.3965" y1="612.4077" x2="2473.8047" y2="612.4077">
			<stop  offset="0" style="stop-color:#D1D7E0"/>
			<stop  offset="1" style="stop-color:#EBEBFF"/>
		</linearGradient>
		<polygon class="st48" points="2466.62,621.98 2473.8,621.98 2464.58,602.84 2457.4,602.84 		"/>
		<linearGradient id="SVGID_15_" gradientUnits="userSpaceOnUse" x1="2358.4316" y1="594.4019" x2="2484.5352" y2="594.4019">
			<stop  offset="0" style="stop-color:#D1D7E0"/>
			<stop  offset="1" style="stop-color:#EBEBFF"/>
		</linearGradient>
		<polygon class="st49" points="2362.48,599.19 2484.54,599.19 2480.48,589.62 2358.43,589.62 		"/>
	</g>
	<g>
		<g>
			<linearGradient id="SVGID_16_" gradientUnits="userSpaceOnUse" x1="1658.1006" y1="286.2993" x2="1709.8213" y2="286.2993">
				<stop  offset="0" style="stop-color:#D1D7E0"/>
				<stop  offset="1" style="stop-color:#EBEBFF"/>
			</linearGradient>
			<path class="st50" d="M1707,294.09h-46.09c-1.56,0-2.82-1.26-2.82-2.82v-9.95c0-1.56,1.26-2.82,2.82-2.82H1707
				c1.56,0,2.82,1.26,2.82,2.82v9.95C1709.82,292.83,1708.56,294.09,1707,294.09z"/>
		</g>
		<g>
			<linearGradient id="SVGID_17_" gradientUnits="userSpaceOnUse" x1="1658.1006" y1="323.6753" x2="1709.8213" y2="323.6753">
				<stop  offset="0" style="stop-color:#D1D7E0"/>
				<stop  offset="1" style="stop-color:#EBEBFF"/>
			</linearGradient>
			<path class="st51" d="M1707,331.47h-46.09c-1.56,0-2.82-1.26-2.82-2.82v-9.95c0-1.56,1.26-2.82,2.82-2.82H1707
				c1.56,0,2.82,1.26,2.82,2.82v9.95C1709.82,330.21,1708.56,331.47,1707,331.47z"/>
		</g>
		<g>
			<linearGradient id="SVGID_18_" gradientUnits="userSpaceOnUse" x1="1658.1006" y1="361.0518" x2="1709.8213" y2="361.0518">
				<stop  offset="0" style="stop-color:#D1D7E0"/>
				<stop  offset="1" style="stop-color:#EBEBFF"/>
			</linearGradient>
			<path class="st52" d="M1707,368.85h-46.09c-1.56,0-2.82-1.26-2.82-2.82v-9.95c0-1.56,1.26-2.82,2.82-2.82H1707
				c1.56,0,2.82,1.26,2.82,2.82v9.95C1709.82,367.58,1708.56,368.85,1707,368.85z"/>
		</g>
		<g>
			<linearGradient id="SVGID_19_" gradientUnits="userSpaceOnUse" x1="1731.1768" y1="286.2993" x2="1745.8926" y2="286.2993">
				<stop  offset="0" style="stop-color:#D1D7E0"/>
				<stop  offset="1" style="stop-color:#EBEBFF"/>
			</linearGradient>
			<path class="st53" d="M1743.08,294.09h-9.08c-1.56,0-2.82-1.26-2.82-2.82v-9.95c0-1.56,1.26-2.82,2.82-2.82h9.08
				c1.56,0,2.82,1.26,2.82,2.82v9.95C1745.89,292.83,1744.63,294.09,1743.08,294.09z"/>
		</g>
		<g>
			<linearGradient id="SVGID_20_" gradientUnits="userSpaceOnUse" x1="1731.1768" y1="323.6753" x2="1745.8926" y2="323.6753">
				<stop  offset="0" style="stop-color:#D1D7E0"/>
				<stop  offset="1" style="stop-color:#EBEBFF"/>
			</linearGradient>
			<path class="st54" d="M1743.08,331.47h-9.08c-1.56,0-2.82-1.26-2.82-2.82v-9.95c0-1.56,1.26-2.82,2.82-2.82h9.08
				c1.56,0,2.82,1.26,2.82,2.82v9.95C1745.89,330.21,1744.63,331.47,1743.08,331.47z"/>
		</g>
		<g>
			<linearGradient id="SVGID_21_" gradientUnits="userSpaceOnUse" x1="1731.1768" y1="361.0518" x2="1745.8926" y2="361.0518">
				<stop  offset="0" style="stop-color:#D1D7E0"/>
				<stop  offset="1" style="stop-color:#EBEBFF"/>
			</linearGradient>
			<path class="st55" d="M1743.08,368.85h-9.08c-1.56,0-2.82-1.26-2.82-2.82v-9.95c0-1.56,1.26-2.82,2.82-2.82h9.08
				c1.56,0,2.82,1.26,2.82,2.82v9.95C1745.89,367.58,1744.63,368.85,1743.08,368.85z"/>
		</g>
	</g>
	<g>
		<linearGradient id="SVGID_22_" gradientUnits="userSpaceOnUse" x1="1526.2705" y1="1118.6743" x2="1596.9365" y2="1118.6743">
			<stop  offset="0" style="stop-color:#D1D7E0"/>
			<stop  offset="1" style="stop-color:#EBEBFF"/>
		</linearGradient>
		<polygon class="st56" points="1542.83,1135.85 1596.94,1135.85 1580.38,1101.5 1526.27,1101.5 		"/>
		<linearGradient id="SVGID_23_" gradientUnits="userSpaceOnUse" x1="1500.9531" y1="1118.6743" x2="1530.4062" y2="1118.6743">
			<stop  offset="0" style="stop-color:#D1D7E0"/>
			<stop  offset="1" style="stop-color:#EBEBFF"/>
		</linearGradient>
		<polygon class="st57" points="1517.51,1135.85 1530.41,1135.85 1513.85,1101.5 1500.95,1101.5 		"/>
	</g>
</g>
</svg>
