<svg viewBox="0 0 500 500" xmlns:xlink="http://www.w3.org/1999/xlink" xmlns="http://www.w3.org/2000/svg"><defs><style>.cls-1,.cls-19,.cls-38,.cls-40{fill:none;}.cls-2{fill:url(#未命名的渐变_210);}.cls-3{fill:url(#未命名的渐变_210-2);}.cls-4{fill:url(#未命名的渐变_210-3);}.cls-5{fill:url(#未命名的渐变_210-4);}.cls-6{fill:url(#未命名的渐变_210-5);}.cls-7{fill:url(#未命名的渐变_210-6);}.cls-8{fill:url(#未命名的渐变_210-7);}.cls-9{fill:url(#未命名的渐变_210-8);}.cls-10{fill:url(#未命名的渐变_210-9);}.cls-11{fill:url(#未命名的渐变_210-10);}.cls-12{fill:url(#未命名的渐变_210-11);}.cls-13{fill:url(#未命名的渐变_210-12);}.cls-14{fill:url(#未命名的渐变_210-13);}.cls-15{fill:url(#未命名的渐变_210-14);}.cls-16{fill:#a9e748;}.cls-17{fill:url(#未命名的渐变_211);}.cls-18{fill-opacity:0.09;}.cls-19{stroke:#007fff;stroke-width:0.57px;}.cls-20{fill:url(#未命名的渐变_233);}.cls-21,.cls-45{fill:#372732;}.cls-21{fill-opacity:0.3;}.cls-22{fill:url(#未命名的渐变_233-2);}.cls-23{fill:url(#未命名的渐变_232);}.cls-24{fill:url(#未命名的渐变_225);}.cls-25{fill:#5a67c1;}.cls-26{fill:url(#未命名的渐变_224);}.cls-27{fill:url(#未命名的渐变_217);}.cls-28{fill:url(#未命名的渐变_224-2);}.cls-29{fill:url(#未命名的渐变_224-3);}.cls-30{fill:url(#未命名的渐变_224-4);}.cls-31{fill:url(#未命名的渐变_224-5);}.cls-32{fill:url(#未命名的渐变_224-6);}.cls-33{fill:#f3f3f3;}.cls-34{fill:url(#未命名的渐变_233-3);}.cls-35{fill:url(#未命名的渐变_224-7);}.cls-36{fill:url(#未命名的渐变_225-2);}.cls-37{fill:url(#未命名的渐变_232-2);}.cls-38{stroke:#5a67c1;stroke-linecap:round;stroke-width:0.5px;}.cls-39{fill:url(#未命名的渐变_227);}.cls-40{stroke:#f3f3f3;stroke-width:6.2px;}.cls-41{fill:url(#未命名的渐变_233-4);}.cls-42{fill:url(#未命名的渐变_233-5);}.cls-43{fill:url(#未命名的渐变_232-3);}.cls-44{fill:#4555bd;}.cls-46{fill:url(#未命名的渐变_233-6);}.cls-47{fill:url(#未命名的渐变_232-4);}.cls-48{fill:url(#未命名的渐变_233-7);}</style><linearGradient gradientUnits="userSpaceOnUse" gradientTransform="translate(1070967.02 33296.86) scale(480.4 52.66)" y2="-627.24" x2="-2229.42" y1="-627.26" x1="-2228.5" id="未命名的渐变_210"><stop stop-color="#b7e0fe" offset="0"></stop><stop stop-color="#d0f1ff" offset="1"></stop></linearGradient><linearGradient xlink:href="#未命名的渐变_210" gradientTransform="translate(22871 151302) scale(8 250)" y2="-604.65" x2="-2805.51" y1="-604.26" x1="-2805.48" id="未命名的渐变_210-2"></linearGradient><linearGradient xlink:href="#未命名的渐变_210" gradientTransform="translate(38488 9921) scale(14)" y2="-706.92" x2="-2735.17" y1="-706.52" x1="-2714.09" id="未命名的渐变_210-3"></linearGradient><linearGradient xlink:href="#未命名的渐变_210" gradientTransform="translate(38502 9921) scale(14)" y2="-706.92" x2="-2735.17" y1="-706.52" x1="-2714.09" id="未命名的渐变_210-4"></linearGradient><linearGradient xlink:href="#未命名的渐变_210" gradientTransform="translate(38516 9921) scale(14)" y2="-706.92" x2="-2735.17" y1="-706.52" x1="-2714.09" id="未命名的渐变_210-5"></linearGradient><linearGradient xlink:href="#未命名的渐变_210" gradientTransform="translate(38530 9921) scale(14)" y2="-706.92" x2="-2735.17" y1="-706.52" x1="-2714.09" id="未命名的渐变_210-6"></linearGradient><linearGradient xlink:href="#未命名的渐变_210" gradientTransform="translate(38544 9921) scale(14)" y2="-706.92" x2="-2735.17" y1="-706.52" x1="-2714.09" id="未命名的渐变_210-7"></linearGradient><linearGradient xlink:href="#未命名的渐变_210" gradientTransform="translate(38488 9935) scale(14)" y2="-706.92" x2="-2735.17" y1="-706.52" x1="-2714.09" id="未命名的渐变_210-8"></linearGradient><linearGradient xlink:href="#未命名的渐变_210" gradientTransform="translate(38502 9935) scale(14)" y2="-706.92" x2="-2735.17" y1="-706.52" x1="-2714.09" id="未命名的渐变_210-9"></linearGradient><linearGradient xlink:href="#未命名的渐变_210" gradientTransform="translate(38516 9935) scale(14)" y2="-706.92" x2="-2735.17" y1="-706.52" x1="-2714.09" id="未命名的渐变_210-10"></linearGradient><linearGradient xlink:href="#未命名的渐变_210" gradientTransform="translate(38530 9935) scale(14)" y2="-706.92" x2="-2735.17" y1="-706.52" x1="-2714.09" id="未命名的渐变_210-11"></linearGradient><linearGradient xlink:href="#未命名的渐变_210" gradientTransform="translate(148031 3345) scale(56 3)" y2="-1103.17" x2="-2650.32" y1="-1103.17" x1="-2629.23" id="未命名的渐变_210-12"></linearGradient><linearGradient xlink:href="#未命名的渐变_210" gradientTransform="translate(38544 9935) scale(14)" y2="-706.92" x2="-2735.17" y1="-706.52" x1="-2714.09" id="未命名的渐变_210-13"></linearGradient><linearGradient xlink:href="#未命名的渐变_210" gradientTransform="translate(1061284.5 7133) scale(476.05 9)" y2="-766.72" x2="-2229.45" y1="-766.72" x1="-2228.53" id="未命名的渐变_210-14"></linearGradient><linearGradient gradientUnits="userSpaceOnUse" gradientTransform="translate(1068367.86 104620.55) scale(479.23 171.62)" y2="-607.31" x2="-2228.28" y1="-607.4" x1="-2229.42" id="未命名的渐变_211"><stop stop-color="#fffea4" offset="0"></stop><stop stop-color="#bbed6c" offset="1"></stop></linearGradient><linearGradient gradientUnits="userSpaceOnUse" gradientTransform="translate(100277.87 29713.19) scale(42.36 50.21)" y2="-587.64" x2="-2363.87" y1="-588.58" x1="-2363.99" id="未命名的渐变_233"><stop stop-color="#f7c0c8" offset="0"></stop><stop stop-color="#ed8d97" offset="1"></stop></linearGradient><linearGradient xlink:href="#未命名的渐变_233" gradientTransform="translate(262429.26 72159.73) scale(107.56 126.45)" y2="-569.09" x2="-2437.14" y1="-569.59" x1="-2437.31" id="未命名的渐变_233-2"></linearGradient><linearGradient gradientUnits="userSpaceOnUse" gradientTransform="translate(135394.69 34722.47) scale(55.14 59.17)" y2="-582.21" x2="-2451.1" y1="-583.93" x1="-2451.37" id="未命名的渐变_232"><stop stop-color="#85c0f8" offset="0"></stop><stop stop-color="#0058af" offset="1"></stop></linearGradient><linearGradient gradientUnits="userSpaceOnUse" gradientTransform="translate(152486.89 39846.34) scale(62.17 68.5)" y2="-578.95" x2="-2447.48" y1="-579.41" x1="-2448.04" id="未命名的渐变_225"><stop stop-color="#fff9e6" offset="0"></stop><stop stop-color="#c0d5e7" offset="1"></stop></linearGradient><linearGradient gradientUnits="userSpaceOnUse" gradientTransform="matrix(18.89, -2.66, 5.05, 35.9, 50502.69, 15201.86)" y2="-604.1" x2="-2493.61" y1="-605.09" x1="-2493.67" id="未命名的渐变_224"><stop stop-color="#6b3c5d" offset="0"></stop><stop stop-color="#261637" offset="1"></stop></linearGradient><linearGradient gradientUnits="userSpaceOnUse" gradientTransform="translate(99472.84 23406.72) scale(39.18)" y2="-594.82" x2="-2530.27" y1="-595.46" x1="-2531.6" id="未命名的渐变_217"><stop stop-color="#fef6e7" offset="0"></stop><stop stop-color="#c5ced2" offset="1"></stop></linearGradient><linearGradient xlink:href="#未命名的渐变_224" gradientTransform="translate(26866.71 7064.74) scale(10.03 9.85)" y2="-709.9" x2="-2648.69" y1="-710.86" x1="-2648.89" id="未命名的渐变_224-2"></linearGradient><linearGradient xlink:href="#未命名的渐变_224" gradientTransform="translate(15845.56 6808.28) scale(5.61 9.38)" y2="-717.61" x2="-2772.93" y1="-718.61" x1="-2773" id="未命名的渐变_224-3"></linearGradient><linearGradient xlink:href="#未命名的渐变_224" gradientTransform="translate(22833.57 4754.22) scale(8.41 5.64)" y2="-824.64" x2="-2679.07" y1="-825.09" x1="-2679.27" id="未命名的渐变_224-4"></linearGradient><linearGradient xlink:href="#未命名的渐变_224" gradientTransform="translate(52364.58 11185.5) scale(20.27 17.21)" y2="-644.25" x2="-2568.83" y1="-644.97" x1="-2569.03" id="未命名的渐变_224-5"></linearGradient><linearGradient xlink:href="#未命名的渐变_224" gradientTransform="translate(70500.73 17117.82) scale(27.55 27.89)" y2="-610.4" x2="-2548.21" y1="-611.4" x1="-2548.4" id="未命名的渐变_224-6"></linearGradient><linearGradient xlink:href="#未命名的渐变_233" gradientTransform="translate(192274.93 23388.84) scale(79.13 56.24)" y2="-410.21" x2="-2426.29" y1="-410.38" x1="-2427.36" id="未命名的渐变_233-3"></linearGradient><linearGradient xlink:href="#未命名的渐变_224" gradientTransform="translate(38519.88 13566.78) scale(15.26 30.53)" y2="-432.48" x2="-2510.52" y1="-433.47" x1="-2510.57" id="未命名的渐变_224-7"></linearGradient><linearGradient xlink:href="#未命名的渐变_225" gradientTransform="translate(123279.94 12243.67) scale(50.47 27.14)" y2="-438.73" x2="-2437.68" y1="-439.17" x1="-2438.19" id="未命名的渐变_225-2"></linearGradient><linearGradient xlink:href="#未命名的渐变_232" gradientTransform="translate(154457.49 28927.2) scale(63.42 70.8)" y2="-404.98" x2="-2432.49" y1="-404.42" x1="-2430.87" id="未命名的渐变_232-2"></linearGradient><linearGradient gradientUnits="userSpaceOnUse" gradientTransform="translate(221901.58 42654.89) scale(94.63 73.38)" y2="-577.87" x2="-2342.78" y1="-578.4" x1="-2343.78" id="未命名的渐变_227"><stop stop-color="#85c0f8" offset="0"></stop><stop stop-color="#2693ff" offset="1"></stop></linearGradient><linearGradient xlink:href="#未命名的渐变_233" gradientTransform="matrix(1, -0.09, -0.09, -1, 2092.63, 2148.43)" y2="2023.51" x2="-1765.48" y1="2022.62" x1="-1821.25" id="未命名的渐变_233-4"></linearGradient><linearGradient xlink:href="#未命名的渐变_233" gradientTransform="matrix(15.38, -0.08, 2.85, 26.48, 39852.02, 7464.66)" y2="-277.07" x2="-2528.72" y1="-276.56" x1="-2530.4" id="未命名的渐变_233-5"></linearGradient><linearGradient xlink:href="#未命名的渐变_232" gradientTransform="matrix(23.67, 1.24, 1.24, 37.78, 59665.65, 13089.49)" y2="-257.11" x2="-2501.36" y1="-257.99" x1="-2501.75" id="未命名的渐变_232-3"></linearGradient><linearGradient xlink:href="#未命名的渐变_233" gradientTransform="matrix(1, 0, 0, -1, 2011, 2022)" y2="1835.17" x2="-1792.7" y1="1881.13" x1="-1840.44" id="未命名的渐变_233-6"></linearGradient><linearGradient xlink:href="#未命名的渐变_232" gradientTransform="translate(69517.5 14932.26) scale(29.13 23.72)" y2="-621.08" x2="-2380.4" y1="-621.67" x1="-2381.4" id="未命名的渐变_232-4"></linearGradient><linearGradient xlink:href="#未命名的渐变_233" gradientTransform="matrix(18.93, -0.47, -0.47, 25.62, 45617.04, 16884.89)" y2="-697.21" x2="-2414.35" y1="-698.77" x1="-2415.33" id="未命名的渐变_233-7"></linearGradient></defs><g id="图层_2"><g id="Layer_1"><g id="Soccer"><rect height="500" width="500" class="cls-1" id="Rectangle"></rect><g id="Group-3"><path d="M29.4,242H471.6a19,19,0,0,1,19,18.9l.2,33.7h0l-480-2.4-.4-31A19,19,0,0,1,29.2,242Z" class="cls-2" id="Rectangle-2"></path><g id="Group-4"><polygon points="423 38 431 38 431 288 423 288 423 38" class="cls-3" id="Rectangle-3"></polygon><g id="Group-2"><circle r="7" cy="28" cx="399" class="cls-4" id="Oval"></circle><circle r="7" cy="28" cx="413" class="cls-5" id="Oval-2"></circle><circle r="7" cy="28" cx="427" class="cls-6" id="Oval-3"></circle><circle r="7" cy="28" cx="441" class="cls-7" id="Oval-4"></circle><circle r="7" cy="28" cx="455" class="cls-8" id="Oval-5"></circle><circle r="7" cy="42" cx="399" class="cls-9" id="Oval-6"></circle><circle r="7" cy="42" cx="413" class="cls-10" id="Oval-7"></circle><circle r="7" cy="42" cx="427" class="cls-11" id="Oval-8"></circle><circle r="7" cy="42" cx="441" class="cls-12" id="Oval-9"></circle><rect height="3" width="56" y="34" x="399" class="cls-13" id="Rectangle-4"></rect><circle r="7" cy="42" cx="455" class="cls-14" id="Oval-10"></circle></g></g><path d="M17.1,228H483.4a4.91,4.91,0,0,1,4.9,4.5,4.15,4.15,0,0,1-3.8,4.5H16.4a4.23,4.23,0,0,1-4.2-4.2v-.3A4.91,4.91,0,0,1,17.1,228Z" class="cls-15" id="Rectangle-5"></path><path d="M14,285H487a4,4,0,0,1,4,4v8a4,4,0,0,1-4,4H14a4,4,0,0,1-4-4v-8A4,4,0,0,1,14,285Z" class="cls-16" id="Rectangle-6"></path><path d="M164.1,324.9l325.1,17.7-.5,40.4a35.36,35.36,0,0,1-7.4,21.1L437,461.2a46.18,46.18,0,0,1-42.4,17.4l-69.5-9.3c2.5-1.5,3.9-3.4,3.9-5.4,0-5-9-9-20-9s-20,4-20,9v.6l-255.3-34a26.89,26.89,0,0,1-17.8-10.3Zm315.4-17.5a10,10,0,0,1,10,10v.1l-.2,19.2L163.5,320l-6.1,2.8-.6-.2-2.4,1.5-.3.1h.1L12.7,415a27.64,27.64,0,0,1-2.4-11.1V335.5a27,27,0,0,1,26.9-27Z" class="cls-17" id="Combined-Shape"></path><ellipse ry="15.5" rx="62" cy="413.5" cx="236" class="cls-18" id="Oval-11"></ellipse><g id="IMG_0031"><path d="M163.2,215.7s7.6,5.4,9.9,2.7-4.9-8.7-4.9-8.7Z" class="cls-19" id="Path"></path><path d="M134.1,229.9s4.5-4.6-3.5-15.5c-7-9.6-9.8-5.9-14.4-11.3-3.6-4.3-2.5-15.3,3.8-18.2,5.2-2.4,9.8-.2,13.6,3,.8.7,1.6.3,2.4.8s.5,1.9.8,2.2c3.4,3.6,4.4,4.9,2.7,7.8s-4.3,4-4.1,4.2,4.1,5.6,10.1,6.3,11.1-3.4,11.1-3.4l-.9,15-12.1,13.3Z" class="cls-20" id="Path-2"></path><path d="M135.4,203h0a16,16,0,0,0,1.3,1.5c-1.2-.1-2.2-.2-3.1-.2S133.3,203.8,135.4,203Z" class="cls-21" id="Combined-Shape-2"></path><path d="M153.3,213.1l-2.4,13-3.9,4.2-8.2,1.7-4.7-2.1s4.2-4.2-2.6-14.4c4.2,3.6,7.9,4.9,11,4.1S149.3,216.6,153.3,213.1Z" class="cls-21" id="Combined-Shape-3"></path><g id="Group-16"><path d="M227.26,232.74c0-5.1,22.4-24.5,26.8-30.2,5.8-7.5,8.2-11,15-14.3s64.7-57.3,64.7-57.3,0-1.2,1.1,1.7-21.3,49.9-41.3,60.9c-11.7,6.4-17.1,11.6-17.7,12.8s-35.2,50.9-35.2,50.9Z" class="cls-22" id="Path-3"></path><path d="M248.46,209.14l-.3-.5a65,65,0,0,0,13.7,19.3c-3,4.1-6,8.2-8.8,12.1l-11.4-11.4,6.2-18.8A4.35,4.35,0,0,1,248.46,209.14Z" class="cls-21" id="Combined-Shape-4"></path><path d="M212.36,233.24l35-23.7v.5c.1,2,.6,9.1,4.6,14.7l.4.6a109.19,109.19,0,0,0,10.2,11.8c-12.6,17.9-23.3,28.1-31.8,30.7q-19.35,5.85-23.3-28.1A38.2,38.2,0,0,1,212.36,233.24Z" class="cls-23" id="Path-4"></path><path d="M240.46,262.34l-4.9-4.5,25.5-18.6C253.46,249.84,246.56,257.54,240.46,262.34Z" class="cls-21" id="Combined-Shape-5"></path><path d="M272.66,185.64c15.6-12.3,60.1-54.7,60.1-54.7s1-1.2,2.1,1.7-21.3,49.9-41.3,60.9c-3.7,2.1-6.8,4-9.4,5.7a47.55,47.55,0,0,1-6.7-5.8A24.63,24.63,0,0,1,272.66,185.64Z" class="cls-24" id="Path-5"></path><path d="M335.06,132.34a7,7,0,0,1-.7,3l-3-3.1c.9-.8,1.4-1.3,1.4-1.3S334.06,129.44,335.06,132.34Z" class="cls-21" id="Combined-Shape-6"></path><path d="M282.16,177.64a24.36,24.36,0,0,0,5,7.8,91.35,91.35,0,0,0,8.4,6.8,15.07,15.07,0,0,1-2,1.2c-3.7,2.1-6.8,4-9.4,5.7a47.55,47.55,0,0,1-6.7-5.8,25.08,25.08,0,0,1-4.9-7.8A124.06,124.06,0,0,0,282.16,177.64Z" class="cls-25" id="Path-6"></path><path d="M293.56,193.54c-11.7,6.4-17.1,11.6-17.7,12.8-.1.2-.7,1-1.6,2.5.1-4.6,3.4-9.2,9.9-13.6a235.09,235.09,0,0,1,23.7-13.9C302.66,186.84,297.76,191.24,293.56,193.54Z" class="cls-21" id="Combined-Shape-7"></path><path d="M334.46,132.14c-.9-1.2-5.8-.7-5.6-3.4s5-3.1,5.2-4.8-.5-18.5,1.7-21.5,4.5-2.9,6.2,2.6,6.8,22.5,6.1,26.1-6,4.4-9.3,5.8S335.36,133.34,334.46,132.14Z" class="cls-26" id="Path-7"></path><g id="Group"><circle r="19.6" cy="82.66" cx="295.1" class="cls-27" id="Oval-12"></circle><path d="M303.7,65.06a19.19,19.19,0,0,1,8.6,8.3,6,6,0,0,1-4,1.6,6,6,0,0,1-4.6-9.9Z" class="cls-28" id="Combined-Shape-8"></path><path d="M279.7,70.46a5.52,5.52,0,0,1-3.9,9.4h-.1a19.82,19.82,0,0,1,4-9.4Z" class="cls-29" id="Combined-Shape-9"></path><path d="M305.8,95.86a5.47,5.47,0,0,1,2.9.8,20.1,20.1,0,0,1-8.4,4.8v-.1A5.55,5.55,0,0,1,305.8,95.86Z" class="cls-30" id="Combined-Shape-10"></path><path d="M277,85a18.93,18.93,0,0,1,18.9,17.2h-.8a18.41,18.41,0,0,1-3.3-.3A16.45,16.45,0,0,0,276.2,88a15.94,15.94,0,0,1-.6-3A6.55,6.55,0,0,0,277,85Z" class="cls-31" id="Combined-Shape-11"></path><path d="M292,69.46A16.52,16.52,0,0,0,308.5,86a16.83,16.83,0,0,0,6-1.1,22.1,22.1,0,0,1-1.1,4.6A18.47,18.47,0,0,1,306,91a19,19,0,0,1-17.3-26.9,23.55,23.55,0,0,1,4.6-1A17.41,17.41,0,0,0,292,69.46Z" class="cls-32" id="Combined-Shape-12"></path></g><path d="M245.06,210.84l3.3-2.2s-.1,8.7,4.6,15.2a118,118,0,0,0,10.6,12.4l-1.6,2a44.09,44.09,0,0,1-9.1-7.9C246.56,223.44,245,216.24,245.06,210.84Z" class="cls-33" id="Path-8"></path></g><g id="Group-15"><path d="M258.37,283.72s14.7,17.8,18.3,24.9c1.6,3.3-2.9,11.3-9.7,13.7-3.9,1.4-20.1,5.9-36.8,10.4-15.5,4.2-22.7,5.5-29.3,7.1-3,.8-4.1-2.8-1.8-3.8,10.4-4.7,41.4-24.6,48.2-24.8-4.5-2.6-9.8-5.9-15.7-9.9Z" class="cls-34" id="Path-9"></path><path d="M201.67,333.92c1.4.8,2.5,3.3,2.4,6.6s-1.5,5-.9,7.7,2.6,6.3,3.1,9.1,1,6.2-3.3,6.8-8.9-6.3-9.7-8.5-2.6-15.1-1.7-18.6C192.37,333.92,200.27,333.12,201.67,333.92Z" class="cls-35" id="Path-10"></path><path d="M241.87,312.82a16.82,16.82,0,0,0,3.3,11.2,45.3,45.3,0,0,0,3.2,3.8c-19,5.5-37.7,10.1-47.4,12.1-3.1.6-4.1-2.8-1.8-3.8C208.17,331.92,230.37,316.42,241.87,312.82Z" class="cls-36" id="Path-11"></path><path d="M198.87,336.22l6.2,2.8q-2.25.45-4.2.9C197.87,340.52,196.87,337.42,198.87,336.22Z" class="cls-21" id="Combined-Shape-13"></path><path d="M232.67,316.62a75.81,75.81,0,0,1,9.1-3.8,16.82,16.82,0,0,0,3.3,11.2,45.3,45.3,0,0,0,3.2,3.8c-3.1.8-6.4,1.7-9.8,2.7a25.87,25.87,0,0,1-3.2-4.4A29.67,29.67,0,0,1,232.67,316.62Z" class="cls-25" id="Path-12"></path><path d="M262.47,289.32c-1.4,6.4-3.5,10.8-6.3,13.4a33.82,33.82,0,0,1-9.6,6l4,3.8-27.5,10c10-7,20.2-10.6,24.2-11.3-3.8-2.1-8-4.8-12.8-7.9l1.1-1.8Z" class="cls-21" id="Combined-Shape-14"></path><path d="M212.87,236.12l27.4,26.5,22.8,25a23.46,23.46,0,0,1-12.7,15.3c-10.8,5.2-17.3,3.8-17.3,3.8l-33.4-40.1C200.67,255.52,206.87,245.22,212.87,236.12Z" class="cls-37" id="Path-13"></path><line y2="253.12" x2="230.87" y1="262.62" x1="240.27" class="cls-38" id="Path-67"></line><path d="M201.57,256.72l42,48.9c-1.5.4-2.9.7-4.1.9l-38.8-46.3A35.77,35.77,0,0,1,201.57,256.72Z" class="cls-33" id="Path-14"></path><path d="M261.17,285.52l1.9,2.1a23.46,23.46,0,0,1-12.7,15.3c-10.8,5.2-17.3,3.8-17.3,3.8l-2.2-2.6c5.2-.4,12-1.5,17.6-4.5C255.27,296,259.17,289.82,261.17,285.52Z" class="cls-33" id="Path-15"></path></g><path d="M219.3,228.7a104.24,104.24,0,0,0-8.3,20.2,216.37,216.37,0,0,0-4.7,25.4l-5.7-6.6,1.7-23.5Z" class="cls-21" id="Path-71"></path><path d="M171.5,206.3s7.4,5,15.1,10.9c4.9,3.7,10,8.9,13.4,9.4,5.2.8,19.4,2.1,19.4,2.1S210,243.3,207,251.5s-5.4,18.2-5.4,18.2c-1-.9-6.9-3.3-16.7-4.5-10.1-1.2-24.8,0-34.2-5.3-11.1-6.3-12-7.5-12-7.5s-15.4.7-13.8-8c1.6-8.9,7.6-17.3,7.6-17.3s8.3-1.2,12.9-7.2a16.6,16.6,0,0,0,2.9-13s5.1-4.6,10.5-9.5S171.5,206.3,171.5,206.3Z" class="cls-39" id="Path-16"></path><path d="M131.5,228.7a96.48,96.48,0,0,0,36.9,18.2c12.9,3.1,25.1,5.8,36.7,8.2" class="cls-40" id="Path-112"></path><path d="M141,245c4.7,6.8,9,11.4,12.9,13.7q5.1,3,18,5.7c-7.5-.4-15.4-1.2-21.1-4.5-11.1-6.3-12-7.5-12-7.5a19.5,19.5,0,0,1-3.2-.1Z" class="cls-21" id="Combined-Shape-15"></path><g id="Group-24"><path d="M141.58,253l-6.22,29.85s3.08,4.25,6.19,8.8c2.65,3.88,7.75,12.87,15.21,27l-3.71,3.43c-20.65-22.58-31-34.93-31-36.93,0-3.42.41-22.83.41-22.83Z" class="cls-41" id="Path-17"></path><path d="M139.57,263.23l-2,8.41a12.93,12.93,0,0,1-1.9.06c-3.61,0-8.15-1.39-13.44-4.44l.11.09v-.1Z" class="cls-21" id="Combined-Shape-16"></path><path d="M156.86,318.64c3.58,5.3,5.15,5,7.52,5.66,2.69.87,4.43,1.32,4.83,2.39s-1.25.61-3.5.21-2.31,0-1,3.2a30.78,30.78,0,0,0,1.95,3.94c1.55,2.78,3.08,5.35,2.51,5.71-.86.57-6.45-8.27-6.45-8.27-.3,0,.83,2.63,2,5.44s2.52,5.81,2.14,6c-1.13.9-5.84-10.53-5.84-10.53s.63,2.65,1.39,5.6,1.86,6.36,1.28,6.61-1.89-3.24-3-6.36c-.83-2.54-1.43-4.8-1.43-4.8s2,9.26.92,9.36c-.7.06-1-2.22-1.73-4.87-.43-1.47-.73-2.64-1-3.42a54.06,54.06,0,0,0-2.73-9.4c-.24-.48-.95-1.73-2-3.54C154.31,320.47,155.53,319.56,156.86,318.64Z" class="cls-42" id="Path-18"></path><path d="M129.45,231.39c7,3.11,11.82,8.91,14.4,17.72l-5.33,18.23c-6.09,2.74-11.71,2.73-16.7-.45C122.69,251.66,123.55,244.26,129.45,231.39Z" class="cls-43" id="Path-19"></path></g><path d="M150,205.3c1,3.8,1.5,10.1-2.6,15.7-4.7,6.3-12.1,7.8-16.2,8.1.8-1.3,1.4-2.1,1.4-2.1s8.3-1.2,12.9-7.2a16.6,16.6,0,0,0,2.9-13S148.9,206.3,150,205.3Z" class="cls-44" id="Path-20"></path><path d="M125.2,208.9s-9.1-1.7-12.3-8-.5-7.2,1.5-14,3-6.6,2.9-8.9,5.8-2.1,7.6,1.8c1.2,2.7,2.3,4.2,2.3,5.2s-2.5,4.3-3.5,6.2.4,3.1,2.4,5.3.6,2.2.2,1.9-3.4-2.3-3.9-1.9-.8,4.6,1.6,4.9S125.2,208.9,125.2,208.9Z" class="cls-45" id="Path-21"></path><path d="M170.3,186.3s13.3-13.2,15.3-18.1c1.3-3.3,11.6-12.8,31-28.6,2.8,1.5,4.1,2.3,4.1,2.3s-20,31.3-25.8,34.5S179.8,197,179.8,197Z" class="cls-46" id="Path-22"></path><path d="M175.2,182.9c5.5.7,9.2,1.7,11.2,3-1.2,1.8-2.4,3.6-3.4,5.2Z" class="cls-21" id="Combined-Shape-17"></path><path d="M154.6,201.4c4-1.8,8.2-1.8,10.3-.8,2.8,1.4,4.3,2.1,6.6,5.7,0,0,8.6-10.2,11.3-12.8s-.7-8.1-3.7-9.7a11.56,11.56,0,0,0-6.2-1.2C160.7,195.2,154.6,201.4,154.6,201.4Z" class="cls-47" id="Path-23"></path><path d="M179.2,197.3c-3.4,3.9-7.7,9-7.7,9a17,17,0,0,0-2.1-2.7Z" class="cls-21" id="Combined-Shape-18"></path><g id="Group-3-2"><path d="M222.9,117.58c-.15,2.19,1,9.69.91,11.39s-4-9.3-4.46-10.74-2-1.64-1.71.08,3.14,9.54,3,11-2.63-6.9-3.48-7.56-1,0-.14,3.4,1.7,5.73,1.7,5.73a38.07,38.07,0,0,0-2.76-3.5c-.58-.34.71,2.76,1.38,4.61s2.55,5.19,2.27,4.87l-4.17,3.72,5.11,1.46c.41-.18,3.46-3.57,6.21-4.18,5.1-1.25,7.8-4.07,7.65-4.78s-3,1-4.31,1.4-2.59-1.68-2.59-1.68a15.38,15.38,0,0,1-1.22-5.5c-.09-1.61-1.57-7.63-2-9.57C223.89,116.34,223,116.18,222.9,117.58Z" class="cls-48" id="Path-24"></path></g><line y2="230.3" x2="205.5" y1="226.3" x1="198.8" class="cls-38" id="Path-97"></line></g></g></g></g></g></svg>